<svg xmlns="http://www.w3.org/2000/svg" role="img" width="24" height="24" style=""><rect id="backgroundrect" width="100%" height="100%" x="0" y="0" fill="none" stroke="none" class="" style=""/><title>Facebook icon</title><g class="currentLayer" style=""><title>Layer 1</title><path d="M24,12.000000045776368 c0,-6.627 -5.373,-12 -12,-12 s-12,5.373 -12,12 c0,5.99 4.388,10.954 10.125,11.854 v-8.385 H7.078 v-3.47 h3.047 V9.357000045776367 c0,-3.007 1.792,-4.6690000000000005 4.533,-4.6690000000000005 c1.312,0 2.686,0.23500000000000001 2.686,0.23500000000000001 v2.9530000000000003 H15.83 c-1.491,0 -1.956,0.925 -1.956,1.874 v2.25 h3.3280000000000003 l-0.532,3.47 h-2.7960000000000003 v8.385 C19.612000000000002,22.954000045776368 24,17.98900004577637 24,12.000000045776368 z" id="svg_1" class="" fill="#ffffff" fill-opacity="1"/></g></svg>